<svg version="1" xmlns="http://www.w3.org/2000/svg" width="566.667" height="566.667" viewBox="0 0 425.000000 425.000000"><path d="M187 24.4c-17.5 2-42.5 7.4-57.5 12.3-8.3 2.7-26 11-33 15.5l-4 2.5-4.3 23.4c-2.4 12.9-6.3 32.4-8.7 43.4-8.7 39.6-11.1 69-8.5 107l1.3 19.3 2.1-1.4c2.1-1.3 2.3-1.1 5.1 8.4 3.6 12.1 8.7 26 12 33.2 15.6 33.2 20.4 40.7 44 68.5 20.4 24.1 33.1 37 41 41.6 3.8 2.3 7.2 4.3 7.4 4.5.1.1-3.8 5.1-8.9 11.1l-9.2 10.8 23.6.3c13 .1 34.2.1 47.1 0l23.4-.3-8.9-10.7-9-10.7 8.1-4.7c4.4-2.6 9-6 10.2-7.4 1.2-1.5 6.6-7.5 11.9-13.4 20.6-22.6 45-54.5 49.6-64.6 1.4-3 4.8-10.5 7.7-16.5 2.8-6.1 6-13.5 7-16.5s2.8-7.3 4-9.5c2.2-4.1 3.5-8.6 5.5-19.1 1.6-8 2.2-8.9 4.8-7.5 1.9 1 2 .7 2.6-7.2 2.9-43 .2-75.3-9.5-115.7-2.2-9.1-6.5-28.8-9.7-43.9l-5.7-27.3-8.2-4.3C302 36.1 285 31 256.4 26.4c-19.7-3.1-51.5-4.1-69.4-2zm117 77.9c1.4.7 5.9 3.7 9.9 6.7 7 5.3 7.5 6 13.5 18 8 16 10.6 28.3 13.2 63l.7 9.4-3-2.5c-6-5-8.9-5.3-54.4-4.6-38.7.5-42.1.7-46.1 2.5-10.1 4.6-14.8 13-14.8 26.5v8.8l-11.2-.3-11.3-.3.3-6.2c.7-12.3-5-23.2-14.3-27.4-3.7-1.7-7.5-1.9-44.7-1.9-25 0-42.6.4-45.6 1.1-3.2.6-6.5 2.3-9.3 4.7l-4.2 3.6.6-8.4c3.4-43.2 4.4-49.1 12-65.1 5.2-11 5.8-11.8 13-17.7 4.1-3.4 8.8-6.7 10.4-7.3 1.9-.7 23.6-1.4 65.7-2 34.6-.5 63.1-1.1 63.4-1.4 1.2-1.1 53.7-.4 56.2.8zM328.7 206c5.7 3.4 6.7 6.8 5.9 20.5-1 18.2-1.5 21.5-3.6 21.5-1.3 0-2.1 1.3-2.9 4.7-2 8.1-6.2 18.3-8 19.2-.9.5-16.5 1-34.6 1.2-36.7.3-36.2.4-42.3-6.6-3.8-4.2-3.9-4.6-5.5-20-1-9.7-1-12.3 0-13.5.7-.8 2.9-3.4 4.9-5.7 3.6-4.3 11-9.5 15.3-10.8 2.3-.7 2.3-.6-.7 3.1-7.2 9.1-5.3 21.6 4.2 27.9 7.9 5.2 20.8 1.9 25-6.3 3.6-7.2 2.6-16.6-2.5-22.1-2.7-3-2.8-3.2-.7-2.6 7.1 2.2 13.6 7.1 18.4 13.8 1.9 2.8 2 2.8 5.7 1.2 2-.8 3.7-2.1 3.7-2.9 0-.7-1.3-3.1-2.8-5.2-5.7-7.8-14.9-14.3-23.7-16.6l-5-1.3 9.5-.6c5.2-.3 15.6-.6 23-.7 11.8-.2 13.9 0 16.7 1.8zm-70.6.6c-6.8 1.8-13.6 5.5-18.5 10-2.1 1.9-4.1 3.3-4.3 3-1-1 .8-7.5 2.9-10.1 3-3.8 5.1-4.4 15.8-4.4h9.5l-5.4 1.5zm-115.6.8c-6.5 1.6-10.9 3.7-17 8.4-4.8 3.6-11.5 12.1-11.5 14.6 0 .7 1.5 2 3.4 2.9l3.4 1.6 4.1-5.2c3.5-4.6 11.2-10.3 16.5-12.3 1.5-.6 1.2.3-1.4 3.5-2.9 3.6-3.5 5.1-3.8 10.6-.4 5.7-.1 6.9 2.4 11 6.6 10.4 21.7 11.5 28.9 2.1 5.6-7.4 5.3-17.3-.8-24.3-3.1-3.5-3.1-3.6-.7-2.8 7 2.1 12.2 6 19 14.2l2.6 3-1.1 13.7c-1.1 12.6-1.4 14-4.1 17.8-5.5 7.8-5.5 7.8-42.9 7.8-18.1 0-33.6-.4-34.3-.9-1.7-1.1-5.3-9-7.7-16.9-1-3.4-2.4-6.2-3.1-6.2-1.6 0-2.2-4-3.9-25.2-.7-8.5.9-13.8 4.9-16.1 2.2-1.3 18.2-2.2 39.6-2.4 11.8-.1 12.2-.1 7.5 1.1zm39.5-.1c2.7 1.3 7.4 9.6 6.8 12.1-.2 1.2-1.1.8-3.8-1.5-5.4-4.8-11.9-8.2-19-10.1l-6.5-1.7h10c6-.1 11 .4 12.5 1.2zm43.4 39.9c.3 2.9.6 7.1.6 9.3.1 5 3.8 14.3 7.6 18.9 1.6 1.9 6 5 9.8 7l6.8 3.6h27.7c22.8 0 27.2.2 25.1 1.3-2 1-2.6 2.1-2.8 5.5-.2 2.3.1 4.2.6 4.2 1.3 0 12.5-7.4 14.1-9.3.7-.9 2.1-1.7 3-1.7.9-.1 3.2-.7 5.2-1.4l3.6-1.3-.1 3.8c0 2.2-.4 3.3-.9 2.6-.5-.9-1.1-.7-2.1.5-.7 1-1.8 1.8-2.5 1.8-.6 0-1.1.6-1.1 1.4 0 1.6-4.8 10.7-6.4 12.1-.7.5-2.6 4-4.4 7.6-1.7 3.7-3.7 6.9-4.5 7.2-.7.2-2.5 3-4 6-1.5 3.1-3.2 5.9-3.7 6.2-.6.4-.8 1.6-.5 2.8.5 1.7.4 1.9-.4.7-1-1.4-1.5-.7-1.2 1.3.1.5-.3.5-.9.2-.6-.4-1.6.6-2.3 2.4-.6 1.7-1.5 3.1-1.9 3.1-.4 0-1.4 1.3-2.3 2.9-.8 1.6-2.3 3.7-3.2 4.7-1.8 1.7-1.9 2.1-2.2 4.7 0 .7-1.3 1.8-2.8 2.4l-2.8 1.2 2.6-.5c1.5-.3 3-.1 3.3.4.3.6-.2.8-1.1.6-2.4-.6-3.6.4-6.2 4.6-1.1 1.9-2.4 3.4-2.8 3.3-.5-.1-.7.5-.7 1.3.1.8-.4 1.4-1 1.4-1.5 0-6.6 5.2-6.6 6.8 0 .6-.9 1.6-1.9 2.2-1.1.5-2.8 2.4-3.8 4-1 1.8-2.6 3-3.8 3-1.1 0-1.5.4-1 .8 1.3.9 1.3 2.7.1 3.9-.5.5-.6.2-.2-.7.5-.9.2-.8-.7.2-.8 1-1.6 1.5-1.9 1.2-.3-.3-.9.7-1.2 2.1-.4 1.4-1.1 2.3-1.6 2-.6-.3-1 .2-1 1.2-.1 1-1.5-1.1-3.3-4.7-5.3-10.9-8.9-15.9-11.9-16.5-2.1-.5-4.2.4-10.2 4.4-4.1 2.8-7.7 5.1-8 5.1-.3 0-4.1-2.3-8.5-5-5.9-3.8-8.5-4.9-10.3-4.5-2.5.6-6.1 5.6-10 14-1.3 2.7-3 5.1-3.7 5.3-.9.2-1.1-.3-.7-1.3.4-1.3.2-1.4-1.4-.5-1.6.9-1.9.8-1.3-.7.5-1.3.3-1.5-1.2-1-1.6.7-1.6.5-.4-1 1.2-1.5 1.2-1.6-.3-1-1.1.4-1.5.2-1.2-.6.2-.7-1.5-3.3-3.8-5.8-2.4-2.5-5.7-6.3-7.5-8.5-1.7-2.1-4.4-5.3-6-7.1-4.5-5.1-10.8-13.3-10.8-14.1 0-.4-.6-1.4-1.3-2.2-1.3-1.6-14-19.5-15.7-22.2-3.2-5.2-15.7-23.7-17.4-26-1.2-1.4-2.1-3.2-2.1-3.8 0-.7-1-2.5-2.1-4.2-1.8-2.5-1.9-3.2-.8-3.9 1-.7.4-.8-1.6-.4-1.6.3-2.4.2-1.7-.1.8-.4.6-1.1-1-2.5l-2.3-1.9 3.9.6c2.3.4 6.4 2.6 10.3 5.5 6 4.5 10 6.6 10.8 5.7.2-.2.1-2.2-.2-4.5-.4-2.9-1.2-4.4-2.7-5.1-1.4-.6 6.5-1.1 25.4-1.4 25.5-.4 27.8-.6 31.5-2.5l4-2.1-.3 3.8c-.6 5.5 1.4 10.7 4.9 12.7 1.6 1 2.9 2 2.9 2.3 0 .3-2.1 1.2-4.7 1.9-8 2.1-18.8 8.1-26 14.4-1.8 1.6-2 2.4-1.2 3.9.8 1.6.6 2.5-.9 4.1-2 2.3-4.8 8.5-4.1 9.2.2.2 1.6.6 3.2 1 2.4.6 2.9.4 3.8-2.3l1-3 5.7 2.9c7.2 3.7 17.4 5.8 32.6 7 22 1.6 50.6-2.2 59-7.7 3.7-2.5 4.1-2.6 5.1-1 2.8 4.7 2.9 4.8 5.7 3.5l2.7-1.2-2.1-4.1c-1.1-2.2-2.7-4.9-3.6-5.8-1.2-1.5-1.3-2-.1-3.4 1.4-1.7 1-2.2-8-8.6-4.4-3.1-17.1-8.9-22.3-10.2-1.6-.3-2.7-1-2.6-1.4.1-.4-.2-1.7-.6-3-.5-1.4-.3-2.8.4-3.7 1.4-1.7-.1-2-1.7-.4-.6.6-1.9 1.2-2.9 1.4-1.1.2-1.9.4-1.9.5 0 .1-.8.3-1.7.5-1 .2-1.8 0-1.8-.3 0-.4-5.7-.6-12.6-.4-10.9.3-13.2.1-16.9-1.7-2.3-1.1-4.5-2.7-4.9-3.6-.4-1.1-.2-1.4.7-.9.9.6.9.5 0-.7-1.7-2.1-.9-4.5 7.3-21.8 4.1-8.5 7.4-15.5 7.4-15.6 0-.2-1.3-.8-3-1.5-2.4-1-3-1.9-3-4.1V242H224.7l.7 5.2zm105.8 14c-.8.8-.9.4-.5-1.3.4-1.3.8-1.8 1.1-1 .2.7-.1 1.8-.6 2.3zm1.4 21c.5.7.3.8-.5.4-.7-.5-1.9 0-2.7 1-1.4 1.8-1.4 1.8-.4-.4 1.2-2.4 2.5-2.8 3.6-1zm-94.4 39.2c5.4 1.4 10.5 2.9 11.5 3.5 1.6.9 1.6 1-.7 1.9-10.9 4.1-48.2 5.2-64.7 1.8-5.1-1-9.3-2.2-9.3-2.7 0-1.1 11-4.4 19.5-5.8 3.9-.6 8.1-1.3 9.5-1.5 6.3-1.1 24.9.4 34.2 2.8z"/><path d="M302.8 115.1c-1 .5-1.8 2-1.8 3.3 0 5.3 7.2 6.4 7.8 1.3.6-4.7-2.3-6.8-6-4.6zM254 175l-23.5.5-.3 5.4c-.2 3-.1 6.5.2 7.8l.6 2.2 41.3-.6c22.6-.3 41.5-.8 41.9-1.2.3-.3.4-3.9.1-7.9l-.6-7.2-18.1.2c-9.9.1-28.7.5-41.6.8zM116.8 176.7l-7.8.4v15l32.3-.3c17.7-.1 36.4-.4 41.5-.6l9.2-.3V176l-33.7.2c-18.6.1-37.3.4-41.5.5zM235.7 289c-.3 1.1-.1 2 .4 2s.9-.9.9-2-.2-2-.4-2-.6.9-.9 2z"/></svg>